<?xml version="1.0" standalone="no"?>
<!DOCTYPE svg PUBLIC "-//W3C//DTD SVG 20010904//EN"
 "http://www.w3.org/TR/2001/REC-SVG-20010904/DTD/svg10.dtd">
<svg version="1.0" xmlns="http://www.w3.org/2000/svg"
 width="500.000000pt" height="500.000000pt" viewBox="0 0 500.000000 500.000000"
 preserveAspectRatio="xMidYMid meet">

<g transform="translate(0.000000,500.000000) scale(0.100000,-0.100000)"
fill="#000000" stroke="none">
<path d="M2255 4104 c-332 -64 -563 -169 -790 -358 -75 -63 -211 -202 -233
-238 -17 -29 -36 -38 -121 -58 -178 -41 -453 -193 -617 -339 -29 -25 -58 -51
-65 -57 -53 -44 -204 -239 -236 -305 -74 -150 -89 -213 -87 -379 1 -127 52
-252 126 -312 22 -18 47 -39 54 -46 8 -8 51 -23 97 -34 63 -15 98 -18 152 -13
74 7 207 53 248 85 14 11 32 20 39 20 15 0 70 43 120 93 15 15 31 27 36 27 5
0 28 25 51 55 23 30 45 55 49 55 4 0 23 25 41 55 19 30 39 55 43 55 5 0 18 19
28 43 11 23 31 62 45 87 13 25 25 51 25 58 0 29 -18 6 -54 -70 -22 -45 -52
-96 -68 -113 -15 -18 -28 -38 -28 -44 0 -17 -241 -255 -286 -283 -63 -40 -184
-86 -258 -98 -53 -10 -85 -10 -145 0 -96 15 -116 26 -178 94 -63 69 -83 127
-84 244 -1 102 35 244 82 328 16 28 29 58 29 66 0 8 9 26 20 39 12 12 31 39
42 59 57 92 140 192 248 298 67 65 104 95 214 168 27 18 188 94 261 124 11 4
33 13 48 19 15 6 40 11 54 11 24 0 25 -1 10 -18 -42 -47 -187 -330 -187 -366
0 -16 -32 -46 -51 -47 -8 0 -34 -14 -59 -29 -25 -16 -63 -38 -86 -49 -50 -25
-178 -158 -238 -248 -125 -187 -129 -405 -9 -482 39 -25 93 -33 100 -14 3 7
-3 10 -15 6 -28 -7 -80 23 -103 60 -18 28 -20 43 -15 122 5 78 11 101 46 173
22 46 63 117 91 158 57 82 200 234 221 234 7 0 33 14 57 30 24 17 54 30 67 30
13 0 26 5 29 10 11 18 133 12 174 -10 80 -40 115 -187 76 -316 -17 -57 -18
-64 -7 -64 19 0 37 89 37 180 0 82 -3 102 -25 144 -35 67 -90 96 -182 96 -72
0 -73 0 -59 28 5 9 30 62 56 117 45 95 141 251 168 274 22 18 197 34 307 27
162 -9 159 -4 60 -104 -47 -48 -112 -127 -144 -176 -63 -97 -136 -240 -136
-267 0 -10 -4 -21 -10 -24 -18 -11 -11 -35 11 -35 15 0 26 14 45 58 91 211
211 377 355 493 l37 29 65 -29 c35 -16 68 -34 72 -41 4 -6 -9 -30 -30 -53 -58
-68 -168 -216 -220 -296 -26 -41 -53 -81 -61 -89 -8 -7 -14 -19 -14 -27 0 -7
-16 -36 -35 -64 -19 -28 -35 -56 -35 -63 0 -7 -16 -38 -35 -68 -19 -30 -35
-59 -35 -66 0 -6 -18 -44 -40 -84 -22 -40 -40 -78 -40 -83 0 -11 -68 -157
-116 -250 -13 -26 -24 -52 -24 -58 0 -6 -16 -38 -35 -70 -19 -33 -35 -64 -35
-69 0 -16 -101 -162 -108 -155 -4 3 -23 52 -43 108 -29 82 -41 103 -58 105
-11 2 -21 -2 -21 -9 0 -23 43 -154 66 -203 13 -27 21 -54 17 -60 -16 -26 -129
-146 -138 -146 -6 0 -34 -17 -62 -39 -29 -21 -73 -49 -99 -62 -44 -21 -222
-57 -286 -59 -16 0 -28 -4 -28 -10 0 -5 15 -10 33 -10 110 0 315 62 425 129
42 26 88 53 102 61 14 8 38 25 53 37 34 28 46 29 54 6 4 -10 29 -54 57 -98
207 -331 511 -569 881 -688 187 -61 328 -80 539 -74 204 5 305 23 474 82 212
74 395 179 553 319 133 118 231 237 336 411 50 83 143 305 143 341 0 10 -8 14
-21 12 -17 -2 -28 -20 -49 -78 -59 -164 -132 -296 -242 -440 -239 -315 -645
-545 -1040 -589 -122 -14 -290 -14 -399 0 -245 30 -539 145 -709 275 -24 19
-50 32 -57 30 -7 -3 -12 -2 -11 2 1 4 -52 61 -118 127 -112 112 -212 241 -276
355 -14 25 -31 44 -38 42 -18 -4 7 26 83 98 37 36 88 93 113 128 43 59 64 76
64 50 0 -20 108 -210 155 -273 69 -92 185 -205 290 -283 83 -62 278 -150 385
-175 36 -9 90 -21 120 -28 32 -8 116 -13 200 -12 174 0 302 24 448 82 84 34
237 113 252 131 3 3 28 22 55 42 48 35 167 151 218 213 39 48 116 173 143 230
27 61 30 72 11 57 -7 -6 -18 -7 -26 -3 -11 7 -11 16 -1 47 7 22 16 43 21 48 5
6 9 18 9 28 0 10 4 26 9 36 18 36 71 167 71 177 0 6 13 43 30 83 16 39 44 105
60 145 17 39 34 87 40 106 9 31 8 33 -13 27 -12 -3 -34 -6 -48 -6 -21 0 -28
-6 -34 -27 -3 -16 -12 -35 -19 -43 -6 -8 -20 -40 -30 -70 -10 -30 -36 -90 -57
-133 -21 -43 -36 -83 -33 -90 2 -7 -12 -50 -31 -97 -19 -46 -35 -91 -35 -100
0 -9 -6 -24 -13 -35 -7 -11 -26 -58 -42 -105 -15 -47 -41 -110 -57 -141 -15
-31 -28 -61 -28 -68 0 -22 -88 -147 -133 -189 -26 -23 -47 -45 -46 -48 1 -11
-46 -46 -116 -87 -294 -172 -670 -210 -994 -100 -103 35 -258 119 -330 178
-176 145 -275 269 -361 449 -50 105 -56 129 -35 146 12 10 19 10 27 2 21 -21
65 -14 87 14 11 15 19 30 16 34 -3 4 11 30 30 56 19 27 42 63 50 81 9 17 26
34 38 38 13 4 17 8 10 11 -7 3 -27 -1 -45 -10 -18 -8 -43 -17 -56 -21 -12 -3
-39 -26 -59 -51 -21 -24 -41 -44 -45 -44 -8 0 20 79 34 94 4 6 8 21 8 35 0 13
11 52 24 86 14 33 30 83 37 110 7 28 20 68 29 90 10 22 23 58 30 80 32 103
169 386 204 421 9 9 25 32 36 53 11 20 39 58 63 85 43 47 45 49 67 33 30 -21
87 -101 112 -157 29 -66 36 -203 14 -283 -31 -110 -73 -174 -159 -245 -65 -53
-179 -68 -272 -37 -54 19 -64 16 -34 -11 16 -15 40 -19 119 -22 147 -6 261 31
339 112 23 22 50 49 60 60 25 23 67 112 82 172 26 103 -9 241 -82 318 -16 17
-29 34 -29 38 0 4 -27 26 -60 50 -33 23 -60 49 -60 57 1 13 72 72 124 103 52
30 178 82 227 94 225 53 382 -25 457 -226 13 -34 17 -76 16 -173 -1 -133 11
-155 26 -50 7 55 0 163 -15 223 -23 89 -98 180 -183 221 -80 39 -193 50 -294
28 -77 -17 -276 -116 -341 -171 -31 -26 -54 -38 -65 -34 -9 3 -48 16 -86 30
l-69 24 44 28 c210 132 418 193 659 194 248 0 471 -69 685 -214 54 -36 216
-189 256 -241 91 -121 177 -297 212 -435 12 -47 18 -55 39 -58 l26 -3 -24 88
c-114 429 -468 773 -911 883 -121 30 -328 37 -469 16 -141 -21 -301 -74 -402
-134 -29 -18 -55 -32 -58 -32 -3 0 -29 -18 -58 -40 l-54 -41 -112 12 c-90 10
-133 10 -219 0 -58 -8 -112 -16 -118 -18 -34 -13 -5 27 80 111 109 109 148
142 245 208 348 236 787 321 1207 233 297 -62 542 -191 767 -404 179 -170 312
-379 393 -616 32 -92 74 -267 75 -306 0 -8 -9 -24 -21 -35 -48 -45 -79 -79
-79 -87 0 -5 -16 -35 -35 -68 -19 -32 -31 -59 -26 -59 5 0 11 -21 14 -47 4
-39 12 -54 51 -91 42 -40 51 -44 93 -44 60 2 70 12 11 12 -60 0 -78 21 -81 91
-2 58 27 139 50 139 7 0 10 6 7 13 -5 15 41 110 69 142 69 78 79 95 60 95 -11
0 -28 -7 -39 -15 -10 -8 -22 -15 -25 -15 -3 0 -12 35 -19 77 -15 95 -86 304
-135 398 -93 177 -171 287 -297 416 -247 254 -546 408 -921 474 -104 18 -385
18 -482 -1z"/>
<path d="M2450 3928 c0 -74 9 -91 41 -86 22 3 24 8 27 76 2 45 -1 72 -8 72 -6
0 -10 -27 -10 -66 0 -48 -3 -65 -12 -62 -8 3 -14 28 -16 66 -4 81 -22 80 -22
0z"/>
<path d="M2595 3974 c-19 -19 -19 -35 0 -60 22 -29 19 -54 -7 -54 -20 0 -21
-1 -6 -16 12 -13 20 -14 37 -5 24 13 26 36 6 71 -19 33 -19 50 0 50 19 0 19
16 0 24 -8 3 -21 -2 -30 -10z"/>
<path d="M2322 3968 c-28 -28 -5 -129 32 -136 24 -5 36 14 36 58 0 64 -38 108
-68 78z m41 -64 c1 -21 -2 -40 -8 -42 -12 -3 -28 66 -20 87 9 24 26 -2 28 -45z"/>
<path d="M2224 3933 c3 -16 9 -49 12 -75 5 -33 12 -48 22 -48 11 0 13 7 8 28
-4 15 -9 48 -13 75 -4 32 -10 47 -20 47 -11 0 -14 -7 -9 -27z"/>
<path d="M2781 3907 c-6 -29 -14 -62 -17 -74 -5 -17 -2 -23 10 -23 11 0 16 9
16 30 0 17 5 30 10 30 6 0 10 -8 10 -17 0 -15 2 -14 16 3 14 18 15 18 8 -6
-10 -37 -10 -52 1 -57 6 -2 16 20 23 49 6 29 14 63 18 76 5 16 2 22 -9 22 -8
0 -22 -10 -30 -22 l-16 -23 0 26 c-1 15 -7 29 -15 32 -9 4 -17 -10 -25 -46z"/>
<path d="M2122 3928 c-31 -31 6 -138 48 -138 11 0 20 7 20 15 0 8 -9 15 -20
15 -14 0 -23 11 -31 41 -11 36 -11 42 4 51 10 5 15 13 12 19 -8 12 -19 11 -33
-3z"/>
<path d="M2923 3843 c-23 -71 -20 -83 22 -83 19 1 19 1 2 14 -21 17 -13 42 16
50 20 6 20 7 5 16 -22 14 -12 40 16 40 21 1 21 1 2 15 -32 24 -40 18 -63 -52z"/>
<path d="M2012 3893 c2 -5 14 -36 27 -70 14 -37 30 -63 38 -63 8 0 13 3 11 8
-1 4 -14 35 -28 70 -14 34 -31 62 -38 62 -8 0 -12 -3 -10 -7z"/>
<path d="M3046 3807 c-21 -28 -40 -57 -43 -64 -7 -18 12 -16 27 2 20 24 30 17
23 -16 -10 -53 18 -30 33 27 8 27 16 59 20 70 12 44 -22 33 -60 -19z m27 -12
c-3 -9 -8 -14 -10 -11 -3 3 -2 9 2 15 9 16 15 13 8 -4z"/>
<path d="M1900 3848 c0 -2 15 -33 33 -69 29 -60 35 -65 55 -58 12 5 22 13 22
20 0 6 -7 9 -15 5 -11 -4 -23 10 -42 49 -15 30 -33 55 -40 55 -7 0 -13 -1 -13
-2z"/>
<path d="M1815 3796 c-18 -13 -17 -15 13 -63 18 -27 32 -55 32 -61 0 -15 6
-15 31 -2 22 12 26 35 5 27 -21 -8 -43 20 -28 35 18 18 14 30 -8 23 -14 -4
-22 -1 -27 11 -4 10 -2 19 5 22 13 4 16 22 4 22 -5 0 -17 -6 -27 -14z"/>
<path d="M3180 3777 c0 -13 -13 -43 -30 -65 -34 -48 -36 -52 -16 -52 8 0 27
23 43 50 16 29 33 48 41 45 18 -7 15 16 -5 31 -26 19 -33 17 -33 -9z"/>
<path d="M1695 3716 c-18 -13 -18 -14 4 -37 12 -13 31 -39 42 -56 23 -36 29
-39 47 -21 22 22 14 68 -17 99 -33 32 -48 35 -76 15z m75 -47 c6 -11 10 -28 8
-37 -3 -13 -11 -7 -31 23 -15 22 -27 43 -27 48 0 13 39 -12 50 -34z"/>
<path d="M3266 3708 c-9 -12 -16 -37 -16 -55 0 -23 -5 -33 -15 -33 -8 0 -15 5
-15 11 0 5 -4 7 -10 4 -16 -10 -12 -23 10 -35 29 -15 60 19 60 66 0 31 3 36
20 31 24 -6 28 18 4 27 -22 8 -21 9 -38 -16z"/>
<path d="M3206 2829 c-22 -17 -27 -28 -24 -58 2 -29 7 -37 26 -39 42 -6 90 57
77 99 -8 25 -46 24 -79 -2z"/>
<path d="M4283 2803 c12 -3 17 -14 17 -38 0 -56 -83 -143 -187 -196 -62 -31
-35 -30 33 2 22 10 45 19 52 19 22 0 104 63 128 99 30 47 25 90 -14 109 -14 6
-31 11 -36 11 -6 -1 -3 -3 7 -6z"/>
<path d="M4215 2790 c-16 -7 -17 -9 -3 -9 9 -1 20 4 23 9 7 11 7 11 -20 0z"/>
<path d="M2951 2781 c-30 -5 -37 -12 -53 -56 -11 -27 -29 -70 -41 -95 -19 -40
-27 -46 -62 -51 l-40 -6 39 -2 c32 -1 37 -4 31 -18 -4 -10 -10 -29 -13 -42 -2
-13 -19 -53 -37 -90 -17 -36 -37 -87 -45 -113 -13 -50 -27 -61 -36 -30 -6 18
-11 29 -36 77 -9 17 -28 55 -42 84 -29 61 -33 45 -11 -39 20 -76 19 -116 -9
-194 -27 -79 -92 -153 -147 -167 -25 -6 -19 -7 26 -3 33 3 69 11 80 16 40 21
106 80 121 109 17 35 29 31 37 -11 4 -19 18 -37 39 -50 39 -23 73 -28 42 -6
-28 21 -25 97 8 166 15 30 30 69 34 85 4 17 15 46 24 65 10 19 27 64 39 99 11
35 26 70 32 77 18 22 76 204 65 203 -6 -1 -26 -4 -45 -8z"/>
<path d="M2631 2699 c-22 -24 -45 -98 -39 -125 5 -18 5 -18 13 1 5 11 24 40
42 64 35 46 43 81 18 81 -8 0 -23 -9 -34 -21z"/>
<path d="M3620 2700 c-13 -9 -13 -10 0 -9 8 0 24 4 35 9 l20 9 -20 0 c-11 0
-27 -4 -35 -9z"/>
<path d="M3535 2658 c-69 -50 -140 -123 -181 -186 -43 -65 -44 -68 -38 -125
12 -104 18 -120 53 -144 19 -13 44 -23 57 -23 27 0 82 30 89 48 2 7 -10 1 -29
-13 -42 -32 -69 -32 -91 1 -12 19 -15 36 -10 67 12 78 36 145 65 189 16 24 30
48 30 55 0 7 13 27 28 45 85 100 96 136 27 86z"/>
<path d="M3175 2625 c-50 -11 -50 -12 -71 -70 -11 -33 -31 -82 -44 -110 -58
-125 -73 -210 -46 -263 20 -39 44 -52 93 -51 l38 2 -34 6 c-48 9 -58 30 -43
86 7 26 21 65 32 88 11 22 20 48 20 56 0 9 9 30 19 47 11 17 31 64 45 103 14
40 31 82 37 93 6 11 9 21 7 22 -2 1 -25 -3 -53 -9z"/>
<path d="M3028 2613 c7 -3 16 -2 19 1 4 3 -2 6 -13 5 -11 0 -14 -3 -6 -6z"/>
<path d="M2973 2603 c9 -2 23 -2 30 0 6 3 -1 5 -18 5 -16 0 -22 -2 -12 -5z"/>
<path d="M4365 2599 c-4 -6 -5 -12 -2 -15 2 -3 7 2 10 11 7 17 1 20 -8 4z"/>
<path d="M2581 2534 c0 -11 3 -14 6 -6 3 7 2 16 -1 19 -3 4 -6 -2 -5 -13z"/>
<path d="M2323 2500 c10 -7 17 -24 17 -44 0 -28 -11 -44 -62 -96 -39 -39 -85
-73 -123 -91 -33 -15 -54 -28 -47 -28 7 -1 38 10 68 24 30 14 59 25 65 25 20
0 95 59 123 95 23 29 27 43 22 70 -4 19 -14 35 -24 38 -9 2 -26 8 -37 12 -18
6 -18 5 -2 -5z"/>
<path d="M4302 2490 c-18 -29 -15 -38 4 -12 9 13 14 25 12 27 -2 2 -9 -5 -16
-15z"/>
<path d="M2250 2490 c-13 -9 -13 -10 0 -10 8 0 22 5 30 10 13 9 13 10 0 10 -8
0 -22 -5 -30 -10z"/>
<path d="M2149 2433 c-92 -76 -141 -130 -170 -186 -45 -90 -36 -167 28 -229
44 -41 66 -48 119 -38 l39 8 -52 1 c-43 1 -55 5 -72 27 -12 15 -21 41 -21 59
0 37 38 145 51 145 5 0 9 10 9 21 0 24 72 136 123 192 32 34 33 37 13 37 -12
0 -42 -17 -67 -37z"/>
<path d="M1866 2419 c-29 -23 -70 -96 -81 -146 -3 -18 -11 -35 -16 -38 -12 -8
-12 -25 1 -25 6 0 10 6 10 14 0 8 36 50 80 94 84 84 102 122 56 122 -13 0 -35
-9 -50 -21z"/>
<path d="M1660 2400 c0 -5 5 -10 10 -10 14 0 12 -61 -3 -90 -8 -14 -26 -61
-42 -105 -15 -43 -38 -99 -51 -124 -13 -24 -24 -50 -24 -57 0 -7 -9 -30 -19
-51 -32 -62 -31 -67 14 -64 22 2 45 7 51 12 7 6 24 42 39 82 14 40 36 88 47
107 12 19 25 53 29 75 4 22 13 62 19 89 16 63 1 118 -35 134 -32 15 -35 15
-35 2z"/>
<path d="M3842 2390 c-18 -29 -15 -38 4 -12 9 13 14 25 12 27 -2 2 -9 -5 -16
-15z"/>
<path d="M4200 2360 c-9 -6 -10 -10 -3 -10 6 0 15 5 18 10 8 12 4 12 -15 0z"/>
<path d="M2400 2324 c-24 -15 -70 -103 -70 -134 0 -8 -6 -27 -14 -42 -12 -23
-12 -26 0 -21 9 3 14 -2 15 -13 1 -11 6 -1 12 21 16 53 35 78 74 94 44 18 65
44 61 78 -4 34 -39 42 -78 17z"/>
<path d="M4140 2310 c-9 -6 -10 -10 -3 -10 6 0 15 5 18 10 8 12 4 12 -15 0z"/>
<path d="M3209 2223 c-13 -16 -12 -17 4 -4 9 7 17 15 17 17 0 8 -8 3 -21 -13z"/>
<path d="M1780 2130 c0 -5 9 -14 20 -20 11 -6 20 -9 20 -8 0 2 -9 11 -20 21
-11 9 -20 13 -20 7z"/>
<path d="M2260 2080 c-9 -6 -10 -10 -3 -10 6 0 15 5 18 10 8 12 4 12 -15 0z"/>
<path d="M3390 2030 c-9 -6 -10 -10 -3 -10 6 0 15 5 18 10 8 12 4 12 -15 0z"/>
<path d="M2180 2010 c-8 -5 -10 -10 -5 -10 6 0 17 5 25 10 8 5 11 10 5 10 -5
0 -17 -5 -25 -10z"/>
<path d="M3346 1995 c-11 -8 -15 -15 -9 -15 6 0 16 7 23 15 16 19 11 19 -14 0z"/>
<path d="M3285 1960 c-3 -5 -2 -10 4 -10 5 0 13 5 16 10 3 6 2 10 -4 10 -5 0
-13 -4 -16 -10z"/>
<path d="M3229 1904 c-20 -22 -26 -32 -14 -26 25 13 72 62 59 62 -6 0 -26 -16
-45 -36z"/>
<path d="M136 1885 c-43 -40 -55 -81 -45 -150 16 -96 57 -146 159 -192 46 -22
140 -37 140 -23 0 4 -19 11 -42 14 -70 11 -166 65 -201 114 -26 35 -32 53 -32
95 0 57 18 81 23 30 4 -40 22 -55 64 -51 69 7 109 135 53 172 -37 24 -87 20
-119 -9z"/>
<path d="M1330 1832 c-14 -10 -49 -33 -78 -49 l-52 -30 24 -26 c14 -15 30 -27
36 -27 21 0 50 21 50 35 0 9 9 15 23 15 43 0 62 46 34 84 -12 16 -14 16 -37
-2z m17 -49 c-9 -9 -20 -12 -28 -8 -9 6 -8 11 6 21 23 17 42 6 22 -13z m-57
-28 c0 -18 -24 -30 -40 -20 -8 5 -5 11 7 21 24 18 33 17 33 -1z"/>
<path d="M3147 1822 c-26 -27 -36 -49 -17 -37 10 6 53 65 48 65 -3 0 -16 -13
-31 -28z"/>
<path d="M3602 1768 c-19 -19 -14 -56 8 -68 11 -6 36 -10 55 -8 45 3 68 -17
42 -37 -20 -14 -8 -29 17 -19 24 9 30 43 10 65 -12 14 -30 19 -67 19 -47 0
-49 1 -43 24 7 28 -5 41 -22 24z"/>
<path d="M1361 1681 c-56 -52 -62 -61 -52 -80 7 -12 22 -21 34 -21 23 0 137
75 137 90 0 23 -21 15 -71 -25 -30 -24 -60 -44 -66 -45 -29 0 -10 31 40 66 71
51 70 49 54 62 -10 9 -27 -1 -76 -47z"/>
<path d="M3086 1725 c-3 -9 -6 -22 -5 -28 0 -7 5 -1 10 12 5 13 8 26 5 28 -2
2 -6 -3 -10 -12z"/>
<path d="M3072 1660 c0 -14 2 -19 5 -12 2 6 2 18 0 25 -3 6 -5 1 -5 -13z"/>
<path d="M3516 1649 c-15 -12 -26 -25 -24 -29 8 -20 129 -111 140 -104 8 5 1
16 -22 36 -36 30 -21 40 18 12 24 -16 52 -13 52 6 0 6 -8 13 -17 16 -51 17
-72 30 -76 45 -3 9 -14 22 -25 28 -16 8 -25 6 -46 -10z m44 -24 c7 -9 11 -18
8 -20 -9 -10 -38 7 -38 21 0 18 14 18 30 -1z"/>
<path d="M1505 1621 c-3 -6 -4 -15 -1 -20 3 -5 -19 -31 -48 -59 -40 -38 -51
-54 -42 -61 9 -8 26 3 61 39 35 35 55 48 67 44 26 -8 23 18 -6 45 -15 14 -26
19 -31 12z"/>
<path d="M3427 1562 c-10 -10 -17 -21 -17 -23 0 -2 27 -33 60 -68 59 -63 60
-64 80 -46 20 18 27 45 12 45 -4 0 -13 -5 -20 -12 -9 -9 -16 -7 -31 6 -16 15
-18 22 -8 37 14 23 2 36 -19 19 -13 -12 -17 -11 -25 1 -11 18 -11 26 1 34 11
7 4 25 -9 25 -4 0 -15 -8 -24 -18z"/>
<path d="M1560 1494 c-58 -50 -76 -124 -29 -124 22 0 24 11 8 27 -23 23 41 98
76 89 26 -7 36 0 28 20 -8 22 -49 16 -83 -12z"/>
<path d="M3330 1470 c-15 -27 -4 -63 32 -99 36 -37 61 -46 88 -31 27 14 25 28
-9 69 -20 24 -33 32 -45 28 -18 -7 -16 -34 2 -30 13 3 47 -35 39 -44 -13 -12
-55 19 -74 54 -17 33 -17 35 -1 47 10 7 15 16 11 19 -12 13 -32 7 -43 -13z"/>
<path d="M1680 1451 c0 -5 -21 -37 -46 -71 -34 -47 -43 -65 -34 -74 8 -8 13
-7 20 4 26 44 39 55 51 43 10 -10 8 -18 -11 -38 -19 -20 -21 -28 -11 -38 10
-9 14 -9 21 3 5 8 27 39 49 69 43 57 47 66 32 76 -5 3 -18 -8 -27 -25 -19 -31
-44 -40 -44 -16 0 7 9 25 20 38 10 14 16 28 13 32 -9 9 -33 7 -33 -3z"/>
<path d="M3241 1410 c-11 -6 -10 -13 8 -35 31 -40 26 -51 -10 -21 -27 23 -59
34 -59 21 0 -2 17 -31 38 -63 20 -33 42 -67 47 -76 7 -11 15 -13 24 -7 12 7
10 14 -8 37 -27 34 -19 45 12 16 20 -19 57 -30 57 -18 0 3 -22 39 -48 80 -35
54 -52 72 -61 66z"/>
<path d="M1810 1372 c0 -5 -19 -39 -41 -77 -39 -65 -41 -69 -23 -82 21 -15 44
-17 44 -4 0 5 -6 11 -12 13 -10 4 -10 10 -1 31 9 19 17 24 32 20 22 -6 28 6
11 23 -19 19 -1 45 26 38 31 -8 31 9 -1 30 -27 18 -35 20 -35 8z"/>
<path d="M3080 1315 c-29 -35 39 -159 84 -153 18 3 21 10 20 50 -1 79 -68 146
-104 103z m51 -28 c22 -31 43 -86 36 -94 -16 -16 -67 58 -67 97 0 26 11 25 31
-3z"/>
<path d="M1881 1245 c-36 -81 -38 -88 -22 -93 6 -2 18 12 26 32 9 20 17 36 20
36 3 0 4 -21 2 -46 -3 -64 18 -69 27 -6 4 30 14 56 26 67 11 10 20 24 20 32 0
16 -36 53 -52 53 -7 0 -28 -34 -47 -75z m67 18 c-2 -10 -11 -19 -21 -21 -16
-3 -17 -1 -7 17 13 25 33 28 28 4z"/>
<path d="M2980 1243 l0 -38 -24 30 c-17 21 -28 27 -35 20 -8 -8 -3 -34 17 -90
15 -44 28 -82 29 -84 1 -2 9 -1 18 3 14 5 14 8 0 35 -19 37 -20 63 -1 39 19
-25 26 -22 27 10 1 24 3 22 13 -13 8 -24 20 -41 31 -43 11 -3 16 1 12 10 -3 7
-16 46 -28 85 -18 53 -29 73 -41 73 -14 0 -18 -8 -18 -37z"/>
<path d="M2035 1239 c-4 -12 -4 -41 0 -65 7 -52 0 -71 -21 -53 -17 14 -29 6
-21 -16 8 -19 51 -20 67 0 8 9 10 28 6 48 -13 69 -12 72 12 71 15 0 22 5 22
18 0 27 -56 25 -65 -3z"/>
<path d="M2824 1214 c17 -44 18 -64 3 -64 -16 0 -27 20 -27 51 0 11 -7 19 -16
19 -13 0 -15 -6 -10 -27 3 -16 11 -56 18 -90 15 -74 40 -89 36 -22 -4 57 19
64 28 9 4 -23 11 -39 18 -37 13 5 13 22 -5 110 -11 54 -17 67 -32 67 -13 0
-17 -5 -13 -16z"/>
<path d="M2242 1198 c-7 -7 -12 -26 -12 -43 0 -17 -5 -36 -11 -42 -6 -6 -9
-26 -7 -44 2 -28 7 -35 29 -37 24 -3 28 2 38 42 16 66 15 79 -9 71 -16 -5 -20
-2 -20 15 0 13 8 24 20 27 11 3 17 9 14 14 -7 13 -28 11 -42 -3z m14 -104 c-3
-9 -6 -23 -6 -32 0 -12 -3 -13 -11 -5 -13 13 -3 53 13 53 5 0 7 -7 4 -16z"/>
<path d="M2657 1193 c-17 -16 -5 -61 23 -88 36 -34 38 -52 8 -57 -32 -4 -24
-23 10 -23 24 0 27 4 30 35 2 28 -3 41 -23 60 -28 26 -33 50 -10 50 8 0 15 7
15 15 0 15 -40 21 -53 8z"/>
<path d="M2440 1116 c0 -41 -3 -81 -6 -90 -4 -12 0 -16 16 -16 20 0 22 4 16
34 -6 29 -3 34 16 40 21 6 22 7 6 20 -26 19 -23 56 3 56 33 0 16 25 -19 28
l-32 3 0 -75z"/>
<path d="M2562 1100 c3 -80 5 -90 22 -90 15 0 17 5 12 31 -3 17 -6 58 -6 90 0
46 -3 59 -15 59 -13 0 -15 -15 -13 -90z"/>
</g>
</svg>
